<?xml version="1.0" encoding="UTF-8" standalone="no"?>
<!DOCTYPE svg PUBLIC "-//W3C//DTD SVG 1.1//EN"
 "http://www.w3.org/Graphics/SVG/1.1/DTD/svg11.dtd">
<!-- Generated by graphviz version 2.40.1 (20161225.0304)
 -->
<!-- Title: dependencies Pages: 1 -->
<svg width="2700pt" height="284pt"
 viewBox="0.00 0.00 2700.00 284.00" xmlns="http://www.w3.org/2000/svg" xmlns:xlink="http://www.w3.org/1999/xlink">
<g id="graph0" class="graph" transform="scale(1 1) rotate(0) translate(4 280)">
<title>dependencies</title>
<polygon fill="#ffffff" stroke="transparent" points="-4,4 -4,-280 2696,-280 2696,4 -4,4"/>
<text text-anchor="start" x="1325.0091" y="-42.4" font-family="sans-serif" font-weight="bold" font-size="14.00" fill="#000000">Legend</text>
<polygon fill="#ffffb3" stroke="transparent" points="1112,-10 1112,-30 1132,-30 1132,-10 1112,-10"/>
<text text-anchor="start" x="1135.629" y="-15.4" font-family="sans-serif" font-size="14.00" fill="#000000"> &#160;Declarations</text>
<polygon fill="#8dd3c7" stroke="transparent" points="1225,-10 1225,-30 1245,-30 1245,-10 1225,-10"/>
<text text-anchor="start" x="1248.7251" y="-15.4" font-family="sans-serif" font-size="14.00" fill="#000000"> &#160;Module</text>
<polygon fill="#80b1d3" stroke="transparent" points="1311,-10 1311,-30 1331,-30 1331,-10 1311,-10"/>
<text text-anchor="start" x="1334.7812" y="-15.4" font-family="sans-serif" font-size="14.00" fill="#000000"> &#160;Bootstrap</text>
<polygon fill="#fdb462" stroke="transparent" points="1408,-10 1408,-30 1428,-30 1428,-10 1408,-10"/>
<text text-anchor="start" x="1431.6732" y="-15.4" font-family="sans-serif" font-size="14.00" fill="#000000"> &#160;Providers</text>
<polygon fill="#fb8072" stroke="transparent" points="1504,-10 1504,-30 1524,-30 1524,-10 1504,-10"/>
<text text-anchor="start" x="1527.7258" y="-15.4" font-family="sans-serif" font-size="14.00" fill="#000000"> &#160;Exports</text>
<g id="clust1" class="cluster">
<title>cluster_AppModule</title>
<polygon fill="none" stroke="#000000" stroke-dasharray="1,5" points="8,-70 8,-268 2684,-268 2684,-70 8,-70"/>
</g>
<g id="clust2" class="cluster">
<title>cluster_AppModule_declarations</title>
<polygon fill="none" stroke="#000000" points="947,-78 947,-130 2676,-130 2676,-78 947,-78"/>
</g>
<g id="clust15" class="cluster">
<title>cluster_AppModule_imports</title>
<polygon fill="none" stroke="#000000" points="817,-78 817,-130 939,-130 939,-78 817,-78"/>
</g>
<g id="clust17" class="cluster">
<title>cluster_AppModule_bootstrap</title>
<polygon fill="none" stroke="#000000" points="1330,-208 1330,-260 1454,-260 1454,-208 1330,-208"/>
</g>
<g id="clust18" class="cluster">
<title>cluster_AppModule_providers</title>
<polygon fill="none" stroke="#000000" points="16,-78 16,-130 809,-130 809,-78 16,-78"/>
</g>
<!-- AppComponent -->
<g id="node1" class="node">
<title>AppComponent</title>
<polygon fill="#ffffb3" stroke="#000000" points="2667.9399,-122 2562.0601,-122 2562.0601,-86 2667.9399,-86 2667.9399,-122"/>
<text text-anchor="middle" x="2615" y="-99.8" font-family="Times,serif" font-size="14.00" fill="#000000">AppComponent</text>
</g>
<!-- AppModule -->
<g id="node13" class="node">
<title>AppModule</title>
<polygon fill="#8dd3c7" stroke="#000000" points="1433.6571,-187 1430.6571,-191 1409.6571,-191 1406.6571,-187 1350.3429,-187 1350.3429,-151 1433.6571,-151 1433.6571,-187"/>
<text text-anchor="middle" x="1392" y="-164.8" font-family="Times,serif" font-size="14.00" fill="#000000">AppModule</text>
</g>
<!-- AppComponent&#45;&gt;AppModule -->
<g id="edge1" class="edge">
<title>AppComponent&#45;&gt;AppModule</title>
<path fill="none" stroke="#000000" d="M2615,-122.3228C2615,-145.6602 2615,-183 2615,-183 2615,-183 1443.7446,-183 1443.7446,-183"/>
<polygon fill="#000000" stroke="#000000" points="1443.7447,-179.5001 1433.7446,-183 1443.7446,-186.5001 1443.7447,-179.5001"/>
</g>
<!-- LoginComponent -->
<g id="node2" class="node">
<title>LoginComponent</title>
<polygon fill="#ffffb3" stroke="#000000" points="2544.2758,-122 2429.7242,-122 2429.7242,-86 2544.2758,-86 2544.2758,-122"/>
<text text-anchor="middle" x="2487" y="-99.8" font-family="Times,serif" font-size="14.00" fill="#000000">LoginComponent</text>
</g>
<!-- LoginComponent&#45;&gt;AppModule -->
<g id="edge2" class="edge">
<title>LoginComponent&#45;&gt;AppModule</title>
<path fill="none" stroke="#000000" d="M2487,-122.1554C2487,-144.3519 2487,-179 2487,-179 2487,-179 1443.9207,-179 1443.9207,-179"/>
<polygon fill="#000000" stroke="#000000" points="1443.9207,-175.5001 1433.9207,-179 1443.9206,-182.5001 1443.9207,-175.5001"/>
</g>
<!-- SignupComponent -->
<g id="node3" class="node">
<title>SignupComponent</title>
<polygon fill="#ffffb3" stroke="#000000" points="2411.5056,-122 2290.4944,-122 2290.4944,-86 2411.5056,-86 2411.5056,-122"/>
<text text-anchor="middle" x="2351" y="-99.8" font-family="Times,serif" font-size="14.00" fill="#000000">SignupComponent</text>
</g>
<!-- SignupComponent&#45;&gt;AppModule -->
<g id="edge3" class="edge">
<title>SignupComponent&#45;&gt;AppModule</title>
<path fill="none" stroke="#000000" d="M2351,-122.2843C2351,-143.3211 2351,-175 2351,-175 2351,-175 1443.8237,-175 1443.8237,-175"/>
<polygon fill="#000000" stroke="#000000" points="1443.8237,-171.5001 1433.8237,-175 1443.8236,-178.5001 1443.8237,-171.5001"/>
</g>
<!-- BookListComponent -->
<g id="node4" class="node">
<title>BookListComponent</title>
<polygon fill="#ffffb3" stroke="#000000" points="2272.9482,-122 2139.0518,-122 2139.0518,-86 2272.9482,-86 2272.9482,-122"/>
<text text-anchor="middle" x="2206" y="-99.8" font-family="Times,serif" font-size="14.00" fill="#000000">BookListComponent</text>
</g>
<!-- BookListComponent&#45;&gt;AppModule -->
<g id="edge4" class="edge">
<title>BookListComponent&#45;&gt;AppModule</title>
<path fill="none" stroke="#000000" d="M2206,-122.308C2206,-142.1455 2206,-171 2206,-171 2206,-171 1443.7674,-171 1443.7674,-171"/>
<polygon fill="#000000" stroke="#000000" points="1443.7674,-167.5001 1433.7674,-171 1443.7673,-174.5001 1443.7674,-167.5001"/>
</g>
<!-- BookEditComponent -->
<g id="node5" class="node">
<title>BookEditComponent</title>
<polygon fill="#ffffb3" stroke="#000000" points="2121.5028,-122 1986.4972,-122 1986.4972,-86 2121.5028,-86 2121.5028,-122"/>
<text text-anchor="middle" x="2054" y="-99.8" font-family="Times,serif" font-size="14.00" fill="#000000">BookEditComponent</text>
</g>
<!-- BookEditComponent&#45;&gt;AppModule -->
<g id="edge5" class="edge">
<title>BookEditComponent&#45;&gt;AppModule</title>
<path fill="none" stroke="#000000" d="M2054,-122.2222C2054,-140.8285 2054,-167 2054,-167 2054,-167 1443.6618,-167 1443.6618,-167"/>
<polygon fill="#000000" stroke="#000000" points="1443.6619,-163.5001 1433.6618,-167 1443.6618,-170.5001 1443.6619,-163.5001"/>
</g>
<!-- BookDetailComponent -->
<g id="node6" class="node">
<title>BookDetailComponent</title>
<polygon fill="#ffffb3" stroke="#000000" points="1968.8767,-122 1823.1233,-122 1823.1233,-86 1968.8767,-86 1968.8767,-122"/>
<text text-anchor="middle" x="1896" y="-99.8" font-family="Times,serif" font-size="14.00" fill="#000000">BookDetailComponent</text>
</g>
<!-- BookDetailComponent&#45;&gt;AppModule -->
<g id="edge6" class="edge">
<title>BookDetailComponent&#45;&gt;AppModule</title>
<path fill="none" stroke="#000000" d="M1896,-122.0225C1896,-139.3734 1896,-163 1896,-163 1896,-163 1443.6732,-163 1443.6732,-163"/>
<polygon fill="#000000" stroke="#000000" points="1443.6733,-159.5001 1433.6732,-163 1443.6732,-166.5001 1443.6733,-159.5001"/>
</g>
<!-- NavbarComponent -->
<g id="node7" class="node">
<title>NavbarComponent</title>
<polygon fill="#ffffb3" stroke="#000000" points="1805.0297,-122 1682.9703,-122 1682.9703,-86 1805.0297,-86 1805.0297,-122"/>
<text text-anchor="middle" x="1744" y="-99.8" font-family="Times,serif" font-size="14.00" fill="#000000">NavbarComponent</text>
</g>
<!-- NavbarComponent&#45;&gt;AppModule -->
<g id="edge7" class="edge">
<title>NavbarComponent&#45;&gt;AppModule</title>
<path fill="none" stroke="#000000" d="M1744,-122.0091C1744,-138.0494 1744,-159 1744,-159 1744,-159 1443.7613,-159 1443.7613,-159"/>
<polygon fill="#000000" stroke="#000000" points="1443.7613,-155.5001 1433.7613,-159 1443.7613,-162.5001 1443.7613,-155.5001"/>
</g>
<!-- HomeComponent -->
<g id="node8" class="node">
<title>HomeComponent</title>
<polygon fill="#ffffb3" stroke="#000000" points="1664.5451,-122 1549.4549,-122 1549.4549,-86 1664.5451,-86 1664.5451,-122"/>
<text text-anchor="middle" x="1607" y="-99.8" font-family="Times,serif" font-size="14.00" fill="#000000">HomeComponent</text>
</g>
<!-- HomeComponent&#45;&gt;AppModule -->
<g id="edge8" class="edge">
<title>HomeComponent&#45;&gt;AppModule</title>
<path fill="none" stroke="#000000" d="M1607,-122.1243C1607,-136.7832 1607,-155 1607,-155 1607,-155 1443.7091,-155 1443.7091,-155"/>
<polygon fill="#000000" stroke="#000000" points="1443.7091,-151.5001 1433.7091,-155 1443.7091,-158.5001 1443.7091,-151.5001"/>
</g>
<!-- NotfoundComponent -->
<g id="node9" class="node">
<title>NotfoundComponent</title>
<polygon fill="#ffffb3" stroke="#000000" points="1531.4902,-122 1396.5098,-122 1396.5098,-86 1531.4902,-86 1531.4902,-122"/>
<text text-anchor="middle" x="1464" y="-99.8" font-family="Times,serif" font-size="14.00" fill="#000000">NotfoundComponent</text>
</g>
<!-- NotfoundComponent&#45;&gt;AppModule -->
<g id="edge9" class="edge">
<title>NotfoundComponent&#45;&gt;AppModule</title>
<path fill="none" stroke="#000000" d="M1415.1666,-122.1061C1415.1666,-122.1061 1415.1666,-140.991 1415.1666,-140.991"/>
<polygon fill="#000000" stroke="#000000" points="1411.6666,-140.9909 1415.1666,-150.991 1418.6666,-140.991 1411.6666,-140.9909"/>
</g>
<!-- FooterComponent -->
<g id="node10" class="node">
<title>FooterComponent</title>
<polygon fill="#ffffb3" stroke="#000000" points="1378.8809,-122 1261.1191,-122 1261.1191,-86 1378.8809,-86 1378.8809,-122"/>
<text text-anchor="middle" x="1320" y="-99.8" font-family="Times,serif" font-size="14.00" fill="#000000">FooterComponent</text>
</g>
<!-- FooterComponent&#45;&gt;AppModule -->
<g id="edge10" class="edge">
<title>FooterComponent&#45;&gt;AppModule</title>
<path fill="none" stroke="#000000" d="M1364.5561,-122.1061C1364.5561,-122.1061 1364.5561,-140.991 1364.5561,-140.991"/>
<polygon fill="#000000" stroke="#000000" points="1361.0562,-140.9909 1364.5561,-150.991 1368.0562,-140.991 1361.0562,-140.9909"/>
</g>
<!-- MybooksComponent -->
<g id="node11" class="node">
<title>MybooksComponent</title>
<polygon fill="#ffffb3" stroke="#000000" points="1243.2218,-122 1108.7782,-122 1108.7782,-86 1243.2218,-86 1243.2218,-122"/>
<text text-anchor="middle" x="1176" y="-99.8" font-family="Times,serif" font-size="14.00" fill="#000000">MybooksComponent</text>
</g>
<!-- MybooksComponent&#45;&gt;AppModule -->
<g id="edge11" class="edge">
<title>MybooksComponent&#45;&gt;AppModule</title>
<path fill="none" stroke="#000000" d="M1176,-122.1243C1176,-136.7832 1176,-155 1176,-155 1176,-155 1340.0969,-155 1340.0969,-155"/>
<polygon fill="#000000" stroke="#000000" points="1340.0969,-158.5001 1350.0969,-155 1340.0969,-151.5001 1340.0969,-158.5001"/>
</g>
<!-- BookAddComponent -->
<g id="node12" class="node">
<title>BookAddComponent</title>
<polygon fill="#ffffb3" stroke="#000000" points="1090.7758,-122 955.2242,-122 955.2242,-86 1090.7758,-86 1090.7758,-122"/>
<text text-anchor="middle" x="1023" y="-99.8" font-family="Times,serif" font-size="14.00" fill="#000000">BookAddComponent</text>
</g>
<!-- BookAddComponent&#45;&gt;AppModule -->
<g id="edge12" class="edge">
<title>BookAddComponent&#45;&gt;AppModule</title>
<path fill="none" stroke="#000000" d="M1023,-122.0091C1023,-138.0494 1023,-159 1023,-159 1023,-159 1340.0303,-159 1340.0303,-159"/>
<polygon fill="#000000" stroke="#000000" points="1340.0303,-162.5001 1350.0303,-159 1340.0302,-155.5001 1340.0303,-162.5001"/>
</g>
<!-- AppComponent  -->
<g id="node15" class="node">
<title>AppComponent </title>
<polygon fill="#80b1d3" stroke="#000000" points="1446.439,-252 1337.561,-252 1337.561,-216 1446.439,-216 1446.439,-252"/>
<text text-anchor="middle" x="1392" y="-229.8" font-family="Times,serif" font-size="14.00" fill="#000000">AppComponent </text>
</g>
<!-- AppModule&#45;&gt;AppComponent  -->
<g id="edge14" class="edge">
<title>AppModule&#45;&gt;AppComponent </title>
<path fill="none" stroke="#000000" stroke-dasharray="1,5" d="M1392,-187.1061C1392,-187.1061 1392,-205.991 1392,-205.991"/>
<polygon fill="#000000" stroke="#000000" points="1388.5001,-205.9909 1392,-215.991 1395.5001,-205.991 1388.5001,-205.9909"/>
</g>
<!-- Ng2Webstorage -->
<g id="node14" class="node">
<title>Ng2Webstorage</title>
<polygon fill="#8dd3c7" stroke="#000000" points="931.4608,-122 928.4608,-126 907.4608,-126 904.4608,-122 824.5392,-122 824.5392,-86 931.4608,-86 931.4608,-122"/>
<text text-anchor="middle" x="878" y="-99.8" font-family="Times,serif" font-size="14.00" fill="#000000">Ng2Webstorage</text>
</g>
<!-- Ng2Webstorage&#45;&gt;AppModule -->
<g id="edge13" class="edge">
<title>Ng2Webstorage&#45;&gt;AppModule</title>
<path fill="none" stroke="#000000" d="M878,-122.0225C878,-139.3734 878,-163 878,-163 878,-163 1339.9372,-163 1339.9372,-163"/>
<polygon fill="#000000" stroke="#000000" points="1339.9373,-166.5001 1349.9372,-163 1339.9372,-159.5001 1339.9373,-166.5001"/>
</g>
<!-- UserService -->
<g id="node16" class="node">
<title>UserService</title>
<ellipse fill="#fdb462" stroke="#000000" cx="743" cy="-104" rx="58.4415" ry="18"/>
<text text-anchor="middle" x="743" y="-99.8" font-family="Times,serif" font-size="14.00" fill="#000000">UserService</text>
</g>
<!-- UserService&#45;&gt;AppModule -->
<g id="edge15" class="edge">
<title>UserService&#45;&gt;AppModule</title>
<path fill="none" stroke="#000000" d="M743,-122.2222C743,-140.8285 743,-167 743,-167 743,-167 1339.9174,-167 1339.9174,-167"/>
<polygon fill="#000000" stroke="#000000" points="1339.9174,-170.5001 1349.9174,-167 1339.9173,-163.5001 1339.9174,-170.5001"/>
</g>
<!-- AuthService -->
<g id="node17" class="node">
<title>AuthService</title>
<ellipse fill="#fdb462" stroke="#000000" cx="607" cy="-104" rx="59.1083" ry="18"/>
<text text-anchor="middle" x="607" y="-99.8" font-family="Times,serif" font-size="14.00" fill="#000000">AuthService</text>
</g>
<!-- AuthService&#45;&gt;AppModule -->
<g id="edge16" class="edge">
<title>AuthService&#45;&gt;AppModule</title>
<path fill="none" stroke="#000000" d="M607,-122.308C607,-142.1455 607,-171 607,-171 607,-171 1340.0725,-171 1340.0725,-171"/>
<polygon fill="#000000" stroke="#000000" points="1340.0726,-174.5001 1350.0725,-171 1340.0725,-167.5001 1340.0726,-174.5001"/>
</g>
<!-- BookService -->
<g id="node18" class="node">
<title>BookService</title>
<ellipse fill="#fdb462" stroke="#000000" cx="469" cy="-104" rx="60.8352" ry="18"/>
<text text-anchor="middle" x="469" y="-99.8" font-family="Times,serif" font-size="14.00" fill="#000000">BookService</text>
</g>
<!-- BookService&#45;&gt;AppModule -->
<g id="edge17" class="edge">
<title>BookService&#45;&gt;AppModule</title>
<path fill="none" stroke="#000000" d="M469,-122.2843C469,-143.3211 469,-175 469,-175 469,-175 1340.2453,-175 1340.2453,-175"/>
<polygon fill="#000000" stroke="#000000" points="1340.2454,-178.5001 1350.2453,-175 1340.2453,-171.5001 1340.2454,-178.5001"/>
</g>
<!-- BookGuardService -->
<g id="node19" class="node">
<title>BookGuardService</title>
<ellipse fill="#fdb462" stroke="#000000" cx="305" cy="-104" rx="85.0947" ry="18"/>
<text text-anchor="middle" x="305" y="-99.8" font-family="Times,serif" font-size="14.00" fill="#000000">BookGuardService</text>
</g>
<!-- BookGuardService&#45;&gt;AppModule -->
<g id="edge18" class="edge">
<title>BookGuardService&#45;&gt;AppModule</title>
<path fill="none" stroke="#000000" d="M305,-122.1554C305,-144.3519 305,-179 305,-179 305,-179 1340.0544,-179 1340.0544,-179"/>
<polygon fill="#000000" stroke="#000000" points="1340.0544,-182.5001 1350.0544,-179 1340.0543,-175.5001 1340.0544,-182.5001"/>
</g>
<!-- GoogleBookService -->
<g id="node20" class="node">
<title>GoogleBookService</title>
<ellipse fill="#fdb462" stroke="#000000" cx="113" cy="-104" rx="89.1896" ry="18"/>
<text text-anchor="middle" x="113" y="-99.8" font-family="Times,serif" font-size="14.00" fill="#000000">GoogleBookService</text>
</g>
<!-- GoogleBookService&#45;&gt;AppModule -->
<g id="edge19" class="edge">
<title>GoogleBookService&#45;&gt;AppModule</title>
<path fill="none" stroke="#000000" d="M113,-122.3228C113,-145.6602 113,-183 113,-183 113,-183 1340.1725,-183 1340.1725,-183"/>
<polygon fill="#000000" stroke="#000000" points="1340.1726,-186.5001 1350.1725,-183 1340.1725,-179.5001 1340.1726,-186.5001"/>
</g>
</g>
</svg>
